<?xml version="1.0" standalone="no"?>
<!DOCTYPE svg PUBLIC "-//W3C//DTD SVG 20010904//EN"
 "http://www.w3.org/TR/2001/REC-SVG-20010904/DTD/svg10.dtd">
<svg version="1.0" xmlns="http://www.w3.org/2000/svg"
 width="500.000000pt" height="500.000000pt" viewBox="0 0 500.000000 500.000000"
 preserveAspectRatio="xMidYMid meet">

<g transform="translate(0.000000,500.000000) scale(0.100000,-0.100000)"
fill="#000000" stroke="none">
<path d="M2636 3188 c-16 -27 -30 -76 -27 -99 1 -12 -9 -18 -36 -21 -59 -8
-203 -77 -203 -98 0 -9 7 -39 16 -66 8 -27 18 -65 21 -84 6 -40 15 -53 43 -57
28 -4 26 19 -6 66 -20 32 -25 48 -22 91 l3 53 53 13 c30 8 57 12 62 9 4 -3 13
-34 19 -70 13 -74 2 -136 -28 -157 -27 -20 -41 -52 -41 -97 0 -30 -7 -49 -28
-73 -16 -18 -38 -48 -51 -65 -12 -18 -42 -47 -67 -65 -25 -18 -70 -62 -100
-100 -46 -57 -59 -67 -90 -70 l-35 -3 -5 -65 c-4 -69 1 -100 17 -100 5 0 9 10
9 23 0 13 11 34 25 47 14 13 25 30 25 38 0 21 126 136 183 168 29 15 92 63
141 108 l88 80 67 -34 c50 -27 66 -40 64 -55 -1 -11 -18 -65 -37 -120 -20 -55
-36 -101 -36 -102 0 -2 -8 -3 -19 -3 -29 0 -45 -25 -31 -49 6 -12 15 -21 20
-21 6 0 10 -5 10 -11 0 -15 50 -79 62 -79 5 0 6 10 2 23 -4 12 -7 51 -5 87 2
66 24 115 113 253 26 40 26 42 10 70 -9 15 -49 62 -89 104 l-72 76 30 70 c16
39 32 73 34 75 2 2 16 -5 32 -15 65 -46 71 -47 86 -11 8 18 17 53 21 78 4 25
12 60 18 78 10 27 9 35 -4 48 -24 25 -39 8 -35 -39 4 -40 -16 -122 -32 -132
-5 -2 -29 25 -54 60 -31 43 -54 65 -67 65 -15 0 -20 7 -20 25 0 20 5 25 24 25
16 0 27 7 31 20 3 11 9 20 13 20 15 0 12 74 -4 92 -25 26 -80 24 -98 -4z"/>
</g>
</svg>
